HIERARCHY
ROOT SpineBase
{
  OFFSET 0.000000 0.000000 0.000000
  CHANNELS 6 Xposition Yposition Zposition Zrotation Xrotation Yrotation
  JOINT SpineMid
  {
    OFFSET 0.000000 28.441677 0.000000
    CHANNELS 3 Zrotation Xrotation Yrotation
    JOINT SpineShoulder
    {
      OFFSET -0.225319 21.258242 -0.754882
      CHANNELS 3 Zrotation Xrotation Yrotation
      JOINT Neck
      {
        OFFSET -0.157827 7.083441 -0.560823
        CHANNELS 3 Zrotation Xrotation Yrotation
        JOINT Head
        {
          OFFSET -6.777221 11.188781 3.824163
          CHANNELS 3 Zrotation Xrotation Yrotation
          End Site
          {
            OFFSET 0 0 0
          }
        }
      }
      JOINT ShoulderLeft
      {
        OFFSET -5.679251 -6.672718 11.654431
        CHANNELS 3 Zrotation Xrotation Yrotation
        JOINT ElbowLeft
        {
          OFFSET 1.290222 -22.262893 9.604262
          CHANNELS 3 Zrotation Xrotation Yrotation
          JOINT WristLeft
          {
            OFFSET 1.690437 -23.828346 -8.492987
            CHANNELS 3 Zrotation Xrotation Yrotation
            JOINT HandLeft
            {
              OFFSET -3.609439 -11.464210 -1.997894
              CHANNELS 3 Zrotation Xrotation Yrotation
              JOINT HandTipLeft
              {
                OFFSET 0.567734 -2.628538 -0.316766
                CHANNELS 3 Zrotation Xrotation Yrotation
                End Site
                {
                  OFFSET 0 0 0
                }
              }
              JOINT ThumbLeft
              {
                OFFSET -0.273686 0.376708 -1.725702
                CHANNELS 3 Zrotation Xrotation Yrotation
                End Site
                {
                  OFFSET 0 0 0
                }
              }
            }
          }
        }
      }
      JOINT ShoulderRight
      {
        OFFSET 3.224836 -2.965574 -13.168260
        CHANNELS 3 Zrotation Xrotation Yrotation
        JOINT ElbowRight
        {
          OFFSET 0.809812 -23.882519 -7.070396
          CHANNELS 3 Zrotation Xrotation Yrotation
          JOINT WristRight
          {
            OFFSET -4.443134 -21.096747 0.677686
            CHANNELS 3 Zrotation Xrotation Yrotation
            JOINT HandRight
            {
              OFFSET -0.656491 -7.356656 2.549471
              CHANNELS 3 Zrotation Xrotation Yrotation
              JOINT HandTipRight
              {
                OFFSET -1.223935 -8.035795 0.928123
                CHANNELS 3 Zrotation Xrotation Yrotation
                End Site
                {
                  OFFSET 0 0 0
                }
              }
              JOINT ThumbRight
              {
                OFFSET -5.808259 2.292847 3.888053
                CHANNELS 3 Zrotation Xrotation Yrotation
                End Site
                {
                  OFFSET 0 0 0
                }
              }
            }
          }
        }
      }
    }
  }
  JOINT HipLeft
  {
    OFFSET -3.081370 0.668732 2.252051
    CHANNELS 3 Zrotation Xrotation Yrotation
    JOINT KneeLeft
    {
      OFFSET 7.931457 -36.457941 -12.757636
      CHANNELS 3 Zrotation Xrotation Yrotation
      JOINT AnkleLeft
      {
        OFFSET 10.371697 -26.817548 -5.711456
        CHANNELS 3 Zrotation Xrotation Yrotation
        JOINT FootLeft
        {
          OFFSET -6.377323 -1.141064 3.824071
          CHANNELS 3 Zrotation Xrotation Yrotation
          End Site
          {
            OFFSET 0 0 0
          }
        }
      }
    }
  }
  JOINT HipRight
  {
    OFFSET 1.584371 2.414797 -8.061358
    CHANNELS 3 Zrotation Xrotation Yrotation
    JOINT KneeRight
    {
      OFFSET 5.776372 -29.655422 -4.227791
      CHANNELS 3 Zrotation Xrotation Yrotation
      JOINT AnkleRight
      {
        OFFSET 8.220936 -31.270971 -3.637439
        CHANNELS 3 Zrotation Xrotation Yrotation
        JOINT FootRight
        {
          OFFSET -3.321582 -6.384028 -0.760854
          CHANNELS 3 Zrotation Xrotation Yrotation
          End Site
          {
            OFFSET 0 0 0
          }
        }
      }
    }
  }
}
MOTION
Frames: 8
Frame Time: 0.033333
55.244576 64.574652 223.801385 -0.897668 -0.829062 63.677430 -0.098975 0.186839 -63.730504 -0.083842 0.002334 -0.064097 -4.443676 -5.392050 -2.061493 0.000000 0.000000 0.000000 1.191249 0.834851 0.104277 -0.000000 0.000000 0.000000 -2.496255 -8.285828 2.883570 11.300471 20.782982 -3.430648 0.000000 0.000000 0.000000 0.000000 0.000000 0.000000 2.464140 -0.009935 -0.310759 -3.041122 0.394659 0.467899 -0.670213 3.042679 -1.050889 -0.574906 -6.423914 1.116954 0.000000 0.000000 0.000000 0.000000 0.000000 0.000000 0.540562 -1.111117 -63.988671 -0.342447 0.835333 0.303482 -4.514428 -3.590129 3.615163 0.000000 0.000000 0.000000 1.141121 -0.436993 -63.679573 0.864783 0.769916 0.095740 1.267694 0.962762 -1.276984 0.000000 0.000000 0.000000
55.223647 64.361265 223.585003 -1.293156 -0.825521 61.710949 -0.251687 0.337911 -61.787334 -0.188774 -0.140363 -0.103928 -5.975941 -8.241652 -3.504584 0.000000 0.000000 0.000000 1.895935 1.032798 0.156098 -0.000000 0.000000 0.000000 -3.048120 -11.657979 3.938785 14.065525 20.080928 -6.412943 0.000000 0.000000 0.000000 0.000000 0.000000 0.000000 3.722329 -0.001541 -0.436761 -4.687211 0.512456 0.639604 -1.299252 5.854622 -1.734421 -1.647896 -7.790570 1.130461 0.000000 0.000000 0.000000 0.000000 0.000000 0.000000 3.092648 -1.443315 -61.917716 -3.926272 -5.878997 -1.220650 -5.173148 -3.855079 14.079525 0.000000 0.000000 0.000000 1.339754 -0.747519 -61.711525 1.287414 0.858828 0.066124 0.596600 2.533705 -2.113331 0.000000 0.000000 0.000000
55.263006 64.174316 223.194741 -1.887955 -1.310037 59.636118 -0.352563 0.353183 -59.752566 -0.165700 -0.072972 -0.134489 -8.162268 -10.739594 -4.880305 0.000000 0.000000 0.000000 2.530797 1.518609 0.200809 -0.000000 0.000000 0.000000 -4.097754 -12.263911 4.179371 13.504436 14.095698 -7.336875 0.000000 0.000000 0.000000 0.000000 0.000000 0.000000 4.718296 0.540527 -0.519874 -5.579762 0.617003 0.700660 -1.949617 8.906286 -2.200043 -3.386304 -7.446961 0.607561 0.000000 0.000000 0.000000 0.000000 0.000000 0.000000 3.857495 -1.834341 -59.932925 -5.716745 -7.431053 -1.599323 -3.279094 -5.576301 25.010931 0.000000 0.000000 0.000000 1.566819 -1.588349 -59.839070 1.444943 1.647132 0.184263 0.029293 4.337018 -3.030526 0.000000 0.000000 0.000000
55.303742 64.013762 222.622031 -2.589485 -1.973814 57.988623 -0.161315 0.238131 -58.151354 -0.015520 0.353480 -0.132809 -10.666716 -12.999355 -6.056825 0.000000 0.000000 0.000000 2.883977 1.644178 0.223757 -0.000000 0.000000 0.000000 -8.766088 -10.959138 4.116775 17.963852 11.591053 -7.827714 0.000000 0.000000 0.000000 0.000000 0.000000 0.000000 5.020700 -0.006816 -0.496407 -6.012040 1.663109 0.690863 -3.417823 11.075533 -2.751804 -3.921569 -6.912592 0.527635 0.000000 0.000000 0.000000 0.000000 0.000000 0.000000 1.829239 -3.465384 -59.009079 -5.765428 -1.642358 0.478609 -1.019175 -9.819561 33.743900 0.000000 0.000000 0.000000 1.361299 -2.061655 -58.406201 2.160763 2.782297 0.257057 -0.373182 5.618538 -3.649101 0.000000 0.000000 0.000000
55.368627 63.865668 222.069364 -3.285218 -2.944093 56.456107 -0.270280 0.150391 -56.696250 -0.042387 0.325408 -0.175844 -13.689410 -14.541020 -7.116409 0.000000 0.000000 0.000000 4.720776 3.433695 0.726581 -1.143098 -0.636251 -0.535395 -11.388565 -8.548141 3.763160 27.625311 27.818021 -7.079264 0.000000 0.000000 0.000000 0.000000 0.000000 0.000000 5.330830 -0.003527 -0.395634 -5.861288 3.620356 0.565087 -4.635625 11.950335 -3.070916 -4.377797 -5.759143 0.449246 0.000000 0.000000 0.000000 0.000000 0.000000 0.000000 -2.559453 -6.031458 -58.932788 -4.652181 10.098788 4.263292 0.698719 -15.490510 40.022578 0.000000 0.000000 0.000000 1.441659 -2.186381 -57.062726 2.885789 3.695528 0.265102 -0.171783 6.458117 -4.045878 0.000000 0.000000 0.000000
55.489906 63.773649 221.573304 -3.927818 -4.106069 55.816962 -0.415130 0.003904 -56.155825 -0.029912 0.224811 -0.220938 -17.440348 -15.750271 -8.003487 0.000000 0.000000 0.000000 5.004021 4.737778 0.595806 -0.844546 -0.475284 -0.394854 -13.258814 -3.894025 3.001967 28.621111 36.629197 -3.139365 0.000000 0.000000 0.000000 0.000000 0.000000 0.000000 5.116760 -0.029090 -0.191806 -5.173957 6.139672 0.313215 -4.708987 11.640785 -3.027787 -5.394241 -2.946862 0.062604 0.000000 0.000000 0.000000 0.000000 0.000000 0.000000 -9.126606 -9.000014 -60.531987 -3.082764 26.022360 8.771828 1.010834 -22.034686 43.611223 0.000000 0.000000 0.000000 1.570020 -2.081636 -56.609026 3.467925 4.523822 0.266359 0.349312 6.779551 -4.153118 0.000000 0.000000 0.000000
55.846611 63.763424 221.180814 -3.995810 -5.393511 55.668079 -0.778023 -0.173427 -56.086444 -0.077972 -0.024443 -0.260982 -22.623197 -16.897290 -8.870834 0.000000 0.000000 0.000000 4.319776 6.194015 0.247335 -0.000000 0.000000 0.000000 -13.886650 3.300445 1.719889 27.110981 35.160317 2.245702 0.000000 0.000000 0.000000 0.000000 0.000000 0.000000 4.485298 0.318741 -0.006819 -3.979507 8.839633 -0.005603 -4.837611 10.183215 -2.860995 -4.758644 0.131798 0.118040 0.000000 0.000000 0.000000 0.000000 0.000000 0.000000 -17.497247 -11.069350 -62.965702 -1.054634 44.069706 13.085620 0.241773 -29.181005 47.902427 0.000000 0.000000 0.000000 1.592592 -0.824771 -56.436984 4.495211 4.672986 0.061112 6.511910 6.767848 -5.047134 0.000000 0.000000 0.000000
56.078094 63.546723 221.090391 -4.469159 -6.916559 55.268298 -1.175072 -0.107452 -55.807517 0.051508 -0.128974 -0.318830 -28.225952 -18.538472 -10.071053 0.000000 0.000000 0.000000 2.379939 5.904545 -0.681698 2.362237 3.991285 1.330044 -15.931716 9.734622 0.166625 25.066338 36.586288 9.242303 0.000000 0.000000 0.000000 0.000000 0.000000 0.000000 3.563117 0.665427 0.490555 -1.597292 11.380620 -0.682535 -5.739855 9.542375 -2.873811 -3.358827 1.906915 0.382553 0.000000 0.000000 0.000000 0.000000 0.000000 0.000000 -25.052562 -12.923921 -65.383490 -0.225535 60.230716 17.254792 -1.957525 -34.285463 44.869365 0.000000 0.000000 0.000000 2.780212 0.251979 -55.972580 5.073004 4.383856 -0.105154 2.119518 6.393122 -3.763804 0.000000 0.000000 0.000000
